# xmcd
#
# Track frame offsets:
# 150
# 13666
# 28776
# 41272
# 57679
# 67953
# 79527
# 93887
# 104105
# 119555
# 135175
# 148762
#
# Disc length: 2167 seconds
#
# Revision: 0
# Processed by: cddbd v1.4PL0 Copyright (c) Steve Scherf et al.
# Submitted via: Audion 2.6.0 (http://www.panic.com/audion/)
#
DISCID=a108750c
DTITLE=Goldberg Musikanten - Freundschaft
DYEAR=1900
DGENRE=
TTITLE0=Prost die Runde
TTITLE1=Schönes Allgäu
TTITLE2=Guten Morgen (Dobro Jutro)
TTITLE3=Das Flügelhorn im Rucksack
TTITLE4=Heut ist wieder so ein Tag
TTITLE5=Gruß an Reutlingen
TTITLE6=Die Liebe und das Glück
TTITLE7=Der Geigenmusikant
TTITLE8=Lieder der Heimat
TTITLE9=Wir bleiben Landsleut
TTITLE10=Freundschaft
TTITLE11=Mein Heimatland
EXTD=
EXTT0=
EXTT1=
EXTT2=
EXTT3=
EXTT4=
EXTT5=
EXTT6=
EXTT7=
EXTT8=
EXTT9=
EXTT10=
EXTT11=
PLAYORDER=
